<?xml version="1.0" encoding="UTF-8" standalone="no"?>
<!DOCTYPE svg PUBLIC "-//W3C//DTD SVG 1.1//EN"
 "http://www.w3.org/Graphics/SVG/1.1/DTD/svg11.dtd">
<!-- Generated by graphviz version 2.40.1 (20161225.0304)
 -->
<!-- Title: tel_flow Pages: 1 -->
<svg width="2244pt" height="1227pt"
 viewBox="0.00 0.00 2244.19 1227.36" xmlns="http://www.w3.org/2000/svg" xmlns:xlink="http://www.w3.org/1999/xlink">
<g id="graph0" class="graph" transform="scale(1 1) rotate(0) translate(4 1223.3603)">
<title>tel_flow</title>
<polygon fill="#ffffff" stroke="transparent" points="-4,4 -4,-1223.3603 2240.1905,-1223.3603 2240.1905,4 -4,4"/>
<g id="clust1" class="cluster">
<title>cluster_vnr</title>
<polygon fill="none" stroke="#000000" points="325.1905,-175.9603 325.1905,-1021.7603 929.1905,-1021.7603 929.1905,-175.9603 325.1905,-175.9603"/>
<text text-anchor="middle" x="627.1905" y="-1005.1603" font-family="Times,serif" font-size="14.00" fill="#000000">Versichertennummer </text>
</g>
<g id="clust2" class="cluster">
<title>cluster_anliegen</title>
<polygon fill="none" stroke="#000000" points="937.1905,-8 937.1905,-720.9603 1736.1905,-720.9603 1736.1905,-8 937.1905,-8"/>
<text text-anchor="middle" x="1336.6905" y="-704.3603" font-family="Times,serif" font-size="14.00" fill="#000000">Anliegen verstehen</text>
</g>
<g id="clust3" class="cluster">
<title>cluster_to_agent</title>
<polygon fill="none" stroke="#000000" points="1744.1905,-81 1744.1905,-387.3603 2228.1905,-387.3603 2228.1905,-81 1744.1905,-81"/>
<text text-anchor="middle" x="1986.1905" y="-370.7603" font-family="Times,serif" font-size="14.00" fill="#000000">Absprung zum Agenten</text>
</g>
<!-- note1 -->
<g id="node1" class="node">
<title>note1</title>
<polygon fill="#d3d3d3" stroke="#000000" points="412.5717,-1219.5617 -.1907,-1219.5617 -.1907,-1160.759 418.5717,-1160.759 418.5717,-1213.5617 412.5717,-1219.5617"/>
<polyline fill="none" stroke="#000000" points="412.5717,-1219.5617 412.5717,-1213.5617 "/>
<polyline fill="none" stroke="#000000" points="418.5717,-1213.5617 412.5717,-1213.5617 "/>
<text text-anchor="middle" x="209.1905" y="-1202.7603" font-family="Times,serif" font-size="14.00" fill="#000000">Dieser Flow wurde als Text/Code definiert und auto&#45;gerendert.</text>
<text text-anchor="middle" x="209.1905" y="-1185.9603" font-family="Times,serif" font-size="14.00" fill="#000000"> &#160;&#160;&#160;&#160;&#160;&#160;&#160;Das Knoten&#45;Layout erfolgt automatisch über ein Layout&#45;Engine.</text>
<text text-anchor="middle" x="209.1905" y="-1169.1603" font-family="Times,serif" font-size="14.00" fill="#000000"> &#160;&#160;&#160;&#160;&#160;&#160;&#160;Siehe https://graphviz.org für mehr Informationen.</text>
</g>
<!-- start -->
<g id="node2" class="node">
<title>start</title>
<ellipse fill="#000000" stroke="#000000" cx="464.1905" cy="-1190.1603" rx="27.8228" ry="27.8228"/>
<text text-anchor="middle" x="464.1905" y="-1185.9603" font-family="Times,serif" font-size="14.00" fill="#000000">start</text>
</g>
<!-- prompt_welcome -->
<g id="node4" class="node">
<title>prompt_welcome</title>
<polygon fill="#add8e6" stroke="#add8e6" points="579.9502,-1124.0606 348.4308,-1124.0606 348.4308,-1048.6601 579.9502,-1048.6601 579.9502,-1124.0606"/>
<text text-anchor="middle" x="464.1905" y="-1107.3603" font-family="Times,serif" font-size="14.00" fill="#000000">Willkommen</text>
<text text-anchor="middle" x="464.1905" y="-1090.5603" font-family="Times,serif" font-size="14.00" fill="#000000"> &#160;&#160;&#160;&#160;&#160;&#160;&#160;beim Telefonkontakt der ABC&#45;</text>
<text text-anchor="middle" x="464.1905" y="-1073.7603" font-family="Times,serif" font-size="14.00" fill="#000000"> &#160;&#160;&#160;&#160;&#160;&#160;&#160;Krankenkasse! Ein Kundenagent </text>
<text text-anchor="middle" x="464.1905" y="-1056.9603" font-family="Times,serif" font-size="14.00" fill="#000000"> &#160;&#160;&#160;&#160;&#160;&#160;&#160;ist gleich für Sie da</text>
</g>
<!-- start&#45;&gt;prompt_welcome -->
<g id="edge1" class="edge">
<title>start&#45;&gt;prompt_welcome</title>
<path fill="none" stroke="#000000" d="M464.1905,-1162.3438C464.1905,-1153.7001 464.1905,-1143.9111 464.1905,-1134.304"/>
<polygon fill="#000000" stroke="#000000" points="467.6906,-1134.0134 464.1905,-1124.0134 460.6906,-1134.0134 467.6906,-1134.0134"/>
</g>
<!-- end -->
<g id="node3" class="node">
<title>end</title>
<ellipse fill="#000000" stroke="#000000" cx="1961.1905" cy="-117.9802" rx="24.9631" ry="24.9631"/>
<ellipse fill="none" stroke="#000000" cx="1961.1905" cy="-117.9802" rx="28.9604" ry="28.9604"/>
<text text-anchor="middle" x="1961.1905" y="-113.7802" font-family="Times,serif" font-size="14.00" fill="#000000">end</text>
</g>
<!-- prompt_vnr -->
<g id="node5" class="node">
<title>prompt_vnr</title>
<polygon fill="#add8e6" stroke="#add8e6" points="582.2425,-988.9603 346.1385,-988.9603 346.1385,-896.9603 582.2425,-896.9603 582.2425,-988.9603"/>
<text text-anchor="middle" x="464.1905" y="-972.3603" font-family="Times,serif" font-size="14.00" fill="#000000">Bevor ich Sie verbinde,</text>
<text text-anchor="middle" x="464.1905" y="-955.5603" font-family="Times,serif" font-size="14.00" fill="#000000"> &#160;&#160;&#160;&#160;&#160;&#160;&#160;sagen Sie mir bitte Ihre</text>
<text text-anchor="middle" x="464.1905" y="-938.7603" font-family="Times,serif" font-size="14.00" fill="#000000"> &#160;&#160;&#160;&#160;&#160;&#160;&#160;Versichertennummer. Sie beginnt </text>
<text text-anchor="middle" x="464.1905" y="-921.9603" font-family="Times,serif" font-size="14.00" fill="#000000"> &#160;&#160;&#160;&#160;&#160;&#160;&#160;mit einem Buchstaben, gefolgt</text>
<text text-anchor="middle" x="464.1905" y="-905.1603" font-family="Times,serif" font-size="14.00" fill="#000000"> &#160;&#160;&#160;&#160;&#160;&#160;&#160;von 8 Ziffern</text>
</g>
<!-- prompt_welcome&#45;&gt;prompt_vnr -->
<g id="edge2" class="edge">
<title>prompt_welcome&#45;&gt;prompt_vnr</title>
<path fill="none" stroke="#000000" d="M464.1905,-1048.6837C464.1905,-1033.5653 464.1905,-1015.8197 464.1905,-999.2309"/>
<polygon fill="#000000" stroke="#000000" points="467.6906,-999.0852 464.1905,-989.0853 460.6906,-999.0853 467.6906,-999.0852"/>
</g>
<!-- utterance_vnr -->
<g id="node6" class="node">
<title>utterance_vnr</title>
<polygon fill="#9acd32" stroke="#9acd32" points="516.3084,-821.9603 412.0726,-821.9603 412.0726,-785.9603 516.3084,-785.9603 516.3084,-821.9603"/>
<text text-anchor="middle" x="464.1905" y="-799.7603" font-family="Times,serif" font-size="14.00" fill="#000000">VNR&#45;Utterance</text>
</g>
<!-- prompt_vnr&#45;&gt;utterance_vnr -->
<g id="edge3" class="edge">
<title>prompt_vnr&#45;&gt;utterance_vnr</title>
<path fill="none" stroke="#000000" d="M464.1905,-896.6754C464.1905,-875.4175 464.1905,-850.886 464.1905,-832.3983"/>
<polygon fill="#000000" stroke="#000000" points="467.6906,-832.2818 464.1905,-822.2818 460.6906,-832.2818 467.6906,-832.2818"/>
</g>
<!-- nlu_vnr -->
<g id="node7" class="node">
<title>nlu_vnr</title>
<polygon fill="#d3d3d3" stroke="#000000" points="440.357,-664.598 564.1905,-652.1603 688.024,-664.598 687.9085,-684.7226 440.4725,-684.7226 440.357,-664.598"/>
<text text-anchor="middle" x="564.1905" y="-665.9603" font-family="Times,serif" font-size="14.00" fill="#000000">NLU: Versichertennr.?</text>
</g>
<!-- utterance_vnr&#45;&gt;nlu_vnr -->
<g id="edge4" class="edge">
<title>utterance_vnr&#45;&gt;nlu_vnr</title>
<path fill="none" stroke="#000000" d="M477.6769,-785.9155C495.5906,-761.947 527.2532,-719.5824 546.903,-693.291"/>
<polygon fill="#000000" stroke="#000000" points="549.886,-695.1462 553.0691,-685.0408 544.2789,-690.9556 549.886,-695.1462"/>
</g>
<!-- intent_vnr_no_intent -->
<g id="node13" class="node">
<title>intent_vnr_no_intent</title>
<polygon fill="#d3d3d3" stroke="#000000" points="763.3734,-564.7226 652.1905,-577.1603 541.0076,-564.7226 541.1114,-544.598 763.2696,-544.598 763.3734,-564.7226"/>
<text text-anchor="middle" x="652.1905" y="-554.9603" font-family="Times,serif" font-size="14.00" fill="#000000">VNR_NO_INTENT</text>
</g>
<!-- nlu_vnr&#45;&gt;intent_vnr_no_intent -->
<g id="edge7" class="edge">
<title>nlu_vnr&#45;&gt;intent_vnr_no_intent</title>
<path fill="none" stroke="#000000" d="M577.5558,-653.3018C592.2424,-634.7766 615.9691,-604.8487 632.7222,-583.7169"/>
<polygon fill="#000000" stroke="#000000" points="635.5179,-585.8244 638.9878,-575.8138 630.0326,-581.4756 635.5179,-585.8244"/>
</g>
<!-- intent_vnr_agent -->
<g id="node14" class="node">
<title>intent_vnr_agent</title>
<polygon fill="#d3d3d3" stroke="#000000" points="523.6716,-564.7226 438.1905,-577.1603 352.7094,-564.7226 352.7892,-544.598 523.5918,-544.598 523.6716,-564.7226"/>
<text text-anchor="middle" x="438.1905" y="-554.9603" font-family="Times,serif" font-size="14.00" fill="#000000">VNR_AGENT</text>
</g>
<!-- nlu_vnr&#45;&gt;intent_vnr_agent -->
<g id="edge5" class="edge">
<title>nlu_vnr&#45;&gt;intent_vnr_agent</title>
<path fill="none" stroke="#000000" d="M545.5988,-653.7819C523.9498,-634.7102 488.0662,-603.0984 463.7923,-581.7143"/>
<polygon fill="#000000" stroke="#000000" points="465.8599,-578.8713 456.0427,-574.8872 461.2326,-584.1238 465.8599,-578.8713"/>
</g>
<!-- intent_vnr_vnr -->
<g id="node15" class="node">
<title>intent_vnr_vnr</title>
<polygon fill="#d3d3d3" stroke="#000000" points="921.1896,-564.7226 851.1905,-577.1603 781.1914,-564.7226 781.2568,-544.598 921.1242,-544.598 921.1896,-564.7226"/>
<text text-anchor="middle" x="851.1905" y="-554.9603" font-family="Times,serif" font-size="14.00" fill="#000000">VNR_VNR</text>
</g>
<!-- nlu_vnr&#45;&gt;intent_vnr_vnr -->
<g id="edge6" class="edge">
<title>nlu_vnr&#45;&gt;intent_vnr_vnr</title>
<path fill="none" stroke="#000000" d="M601.4165,-655.7628C654.9283,-635.0666 753.2962,-597.0219 809.2899,-575.3658"/>
<polygon fill="#000000" stroke="#000000" points="810.8344,-578.5212 818.8986,-571.6496 808.3093,-571.9925 810.8344,-578.5212"/>
</g>
<!-- nlu_anliegen -->
<g id="node8" class="node">
<title>nlu_anliegen</title>
<polygon fill="#d3d3d3" stroke="#000000" points="1381.6468,-664.598 1475.1905,-652.1603 1568.7342,-664.598 1568.6469,-684.7226 1381.7341,-684.7226 1381.6468,-664.598"/>
<text text-anchor="middle" x="1475.1905" y="-665.9603" font-family="Times,serif" font-size="14.00" fill="#000000">NLU: Anliegen?</text>
</g>
<!-- intent_anliegen_no_intent -->
<g id="node16" class="node">
<title>intent_anliegen_no_intent</title>
<polygon fill="#d3d3d3" stroke="#000000" points="1237.6208,-564.7226 1091.1905,-577.1603 944.7602,-564.7226 944.8969,-544.598 1237.4841,-544.598 1237.6208,-564.7226"/>
<text text-anchor="middle" x="1091.1905" y="-554.9603" font-family="Times,serif" font-size="14.00" fill="#000000">ANLIEGEN_NO_INTENT</text>
</g>
<!-- nlu_anliegen&#45;&gt;intent_anliegen_no_intent -->
<g id="edge18" class="edge">
<title>nlu_anliegen&#45;&gt;intent_anliegen_no_intent</title>
<path fill="none" stroke="#000000" d="M1432.2586,-657.7503C1363.0975,-637.7585 1226.9275,-598.3968 1149.1959,-575.9275"/>
<polygon fill="#000000" stroke="#000000" points="1150.1314,-572.5547 1139.5527,-573.1401 1148.1875,-579.2794 1150.1314,-572.5547"/>
</g>
<!-- intent_anliegen_agent -->
<g id="node17" class="node">
<title>intent_anliegen_agent</title>
<polygon fill="#d3d3d3" stroke="#000000" points="1496.4182,-564.7226 1376.1905,-577.1603 1255.9628,-564.7226 1256.075,-544.598 1496.306,-544.598 1496.4182,-564.7226"/>
<text text-anchor="middle" x="1376.1905" y="-554.9603" font-family="Times,serif" font-size="14.00" fill="#000000">ANLIEGEN_AGENT</text>
</g>
<!-- nlu_anliegen&#45;&gt;intent_anliegen_agent -->
<g id="edge17" class="edge">
<title>nlu_anliegen&#45;&gt;intent_anliegen_agent</title>
<path fill="none" stroke="#000000" d="M1460.5827,-653.7819C1444.0809,-635.2798 1417.0527,-604.9755 1398.0389,-583.6571"/>
<polygon fill="#000000" stroke="#000000" points="1400.451,-581.1032 1391.1828,-575.9699 1395.2269,-585.7625 1400.451,-581.1032"/>
</g>
<!-- intent_anliegen_xx -->
<g id="node18" class="node">
<title>intent_anliegen_xx</title>
<polygon fill="#d3d3d3" stroke="#000000" points="1728.5159,-564.7226 1631.1905,-577.1603 1533.8651,-564.7226 1533.956,-544.598 1728.425,-544.598 1728.5159,-564.7226"/>
<text text-anchor="middle" x="1631.1905" y="-554.9603" font-family="Times,serif" font-size="14.00" fill="#000000">ANLIEGEN_XX</text>
</g>
<!-- nlu_anliegen&#45;&gt;intent_anliegen_xx -->
<g id="edge16" class="edge">
<title>nlu_anliegen&#45;&gt;intent_anliegen_xx</title>
<path fill="none" stroke="#000000" d="M1496.5545,-654.959C1523.7085,-635.6379 1570.7308,-602.1798 1601.398,-580.3589"/>
<polygon fill="#000000" stroke="#000000" points="1603.4651,-583.1836 1609.5839,-574.5343 1599.4068,-577.4801 1603.4651,-583.1836"/>
</g>
<!-- prompt_vnr_fail -->
<g id="node9" class="node">
<title>prompt_vnr_fail</title>
<polygon fill="#add8e6" stroke="#add8e6" points="582.1387,-259.2606 398.2423,-259.2606 398.2423,-183.8601 582.1387,-183.8601 582.1387,-259.2606"/>
<text text-anchor="middle" x="490.1905" y="-242.5603" font-family="Times,serif" font-size="14.00" fill="#000000">Das hat leider nicht geklappt. </text>
<text text-anchor="middle" x="490.1905" y="-225.7603" font-family="Times,serif" font-size="14.00" fill="#000000"> &#160;&#160;&#160;&#160;&#160;&#160;&#160;Probieren wirs nochmal.</text>
<text text-anchor="middle" x="490.1905" y="-208.9603" font-family="Times,serif" font-size="14.00" fill="#000000"> &#160;&#160;&#160;&#160;&#160;&#160;&#160;Sagen Sie mir bitte Ihre</text>
<text text-anchor="middle" x="490.1905" y="-192.1603" font-family="Times,serif" font-size="14.00" fill="#000000"> &#160;&#160;&#160;&#160;&#160;&#160;&#160;Versichertennummer.</text>
</g>
<!-- prompt_vnr_fail&#45;&gt;utterance_vnr -->
<g id="edge12" class="edge">
<title>prompt_vnr_fail&#45;&gt;utterance_vnr</title>
<path fill="none" stroke="#000000" d="M398.0918,-248.3435C364.3171,-264.2857 334.1905,-288.7631 334.1905,-325.3603 334.1905,-748.4603 334.1905,-748.4603 334.1905,-748.4603 334.1905,-764.6535 368.7392,-778.9006 402.2156,-788.9045"/>
<polygon fill="#000000" stroke="#000000" points="401.4855,-792.3365 412.0636,-791.7408 403.4229,-785.6099 401.4855,-792.3365"/>
</g>
<!-- prompt_vnr_success -->
<g id="node10" class="node">
<title>prompt_vnr_success</title>
<polygon fill="#add8e6" stroke="#add8e6" points="1207.568,-242.1622 950.813,-242.1622 950.813,-200.9584 1207.568,-200.9584 1207.568,-242.1622"/>
<text text-anchor="middle" x="1079.1905" y="-225.7603" font-family="Times,serif" font-size="14.00" fill="#000000">Danke! Mit welchem Thema </text>
<text text-anchor="middle" x="1079.1905" y="-208.9603" font-family="Times,serif" font-size="14.00" fill="#000000"> &#160;&#160;&#160;&#160;&#160;&#160;&#160;können wir Sie heute unterstützen?</text>
</g>
<!-- utterance_anliegen -->
<g id="node11" class="node">
<title>utterance_anliegen</title>
<polygon fill="#9acd32" stroke="#9acd32" points="1399.5755,-52 1272.8055,-52 1272.8055,-16 1399.5755,-16 1399.5755,-52"/>
<text text-anchor="middle" x="1336.1905" y="-29.8" font-family="Times,serif" font-size="14.00" fill="#000000">Anliegen&#45;Utterance</text>
</g>
<!-- prompt_vnr_success&#45;&gt;utterance_anliegen -->
<g id="edge13" class="edge">
<title>prompt_vnr_success&#45;&gt;utterance_anliegen</title>
<path fill="none" stroke="#000000" d="M1107.6759,-200.7715C1155.6105,-165.7885 1252.1377,-95.3423 1303.0376,-58.1952"/>
<polygon fill="#000000" stroke="#000000" points="1305.3808,-60.8181 1311.3951,-52.0958 1301.2542,-55.1638 1305.3808,-60.8181"/>
</g>
<!-- utterance_anliegen&#45;&gt;nlu_anliegen -->
<g id="edge14" class="edge">
<title>utterance_anliegen&#45;&gt;nlu_anliegen</title>
<path fill="none" stroke="#000000" d="M1399.5511,-51.0147C1451.0438,-66.7708 1515.1905,-91.6774 1515.1905,-117.9802 1515.1905,-614.6603 1515.1905,-614.6603 1515.1905,-614.6603 1515.1905,-626.6024 1509.02,-637.7253 1501.5262,-646.8302"/>
<polygon fill="#000000" stroke="#000000" points="1498.8803,-644.5372 1494.7218,-654.2818 1504.0495,-649.2574 1498.8803,-644.5372"/>
</g>
<!-- prompt_anliegen_success -->
<g id="node12" class="node">
<title>prompt_anliegen_success</title>
<polygon fill="#add8e6" stroke="#add8e6" points="2220.2923,-354.7617 1944.0887,-354.7617 1944.0887,-295.959 2220.2923,-295.959 2220.2923,-354.7617"/>
<text text-anchor="middle" x="2082.1905" y="-337.9603" font-family="Times,serif" font-size="14.00" fill="#000000">Zu Thema XX</text>
<text text-anchor="middle" x="2082.1905" y="-321.1603" font-family="Times,serif" font-size="14.00" fill="#000000"> &#160;&#160;&#160;&#160;&#160;&#160;&#160;unterstützt Sie gleich ein Kundenagent.</text>
<text text-anchor="middle" x="2082.1905" y="-304.3603" font-family="Times,serif" font-size="14.00" fill="#000000"> &#160;&#160;&#160;&#160;&#160;&#160;&#160;Ich verbinde Sie.</text>
</g>
<!-- prompt_anliegen_success&#45;&gt;end -->
<g id="edge24" class="edge">
<title>prompt_anliegen_success&#45;&gt;end</title>
<path fill="none" stroke="#000000" d="M2065.1108,-296.0877C2042.9911,-258.177 2004.5047,-192.2157 1981.0884,-152.0829"/>
<polygon fill="#000000" stroke="#000000" points="1983.9682,-150.0735 1975.9056,-143.2001 1977.9221,-153.6013 1983.9682,-150.0735"/>
</g>
<!-- logic_zweitversuch_vnr -->
<g id="node20" class="node">
<title>logic_zweitversuch_vnr</title>
<polygon fill="#d3d3d3" stroke="#000000" points="652.1905,-466.1603 523.7541,-448.1603 652.1905,-430.1603 780.6269,-448.1603 652.1905,-466.1603"/>
<text text-anchor="middle" x="652.1905" y="-443.9603" font-family="Times,serif" font-size="14.00" fill="#000000">Zweitversuch V&#45;Nr?</text>
</g>
<!-- intent_vnr_no_intent&#45;&gt;logic_zweitversuch_vnr -->
<g id="edge8" class="edge">
<title>intent_vnr_no_intent&#45;&gt;logic_zweitversuch_vnr</title>
<path fill="none" stroke="#000000" d="M652.1905,-544.1904C652.1905,-526.8772 652.1905,-497.9939 652.1905,-476.4167"/>
<polygon fill="#000000" stroke="#000000" points="655.6906,-476.1969 652.1905,-466.197 648.6906,-476.197 655.6906,-476.1969"/>
</g>
<!-- intent_vnr_vnr&#45;&gt;prompt_vnr_success -->
<g id="edge15" class="edge">
<title>intent_vnr_vnr&#45;&gt;prompt_vnr_success</title>
<path fill="none" stroke="#000000" d="M900.8609,-544.5654C931.5816,-534.0066 965.1905,-518.959 965.1905,-503.6603 965.1905,-503.6603 965.1905,-503.6603 965.1905,-325.3603 965.1905,-290.7936 994.2007,-264.687 1022.9524,-247.3015"/>
<polygon fill="#000000" stroke="#000000" points="1024.9156,-250.2099 1031.8346,-242.1863 1021.4222,-244.1439 1024.9156,-250.2099"/>
</g>
<!-- logic_zweitversuch_anliegen -->
<g id="node22" class="node">
<title>logic_zweitversuch_anliegen</title>
<polygon fill="#d3d3d3" stroke="#000000" points="1336.1905,-466.1603 1186.7567,-448.1603 1336.1905,-430.1603 1485.6243,-448.1603 1336.1905,-466.1603"/>
<text text-anchor="middle" x="1336.1905" y="-443.9603" font-family="Times,serif" font-size="14.00" fill="#000000">Zweitversuch Anliegen?</text>
</g>
<!-- intent_anliegen_no_intent&#45;&gt;logic_zweitversuch_anliegen -->
<g id="edge19" class="edge">
<title>intent_anliegen_no_intent&#45;&gt;logic_zweitversuch_anliegen</title>
<path fill="none" stroke="#000000" d="M1123.4719,-544.5349C1167.6913,-524.5008 1247.1048,-488.5216 1295.3916,-466.6448"/>
<polygon fill="#000000" stroke="#000000" points="1296.9499,-469.7813 1304.6142,-462.4663 1294.0611,-463.4051 1296.9499,-469.7813"/>
</g>
<!-- intent_anliegen_xx&#45;&gt;prompt_anliegen_success -->
<g id="edge22" class="edge">
<title>intent_anliegen_xx&#45;&gt;prompt_anliegen_success</title>
<path fill="none" stroke="#000000" d="M1659.4026,-544.5351C1730.1834,-507.842 1916.7585,-411.1209 2016.7318,-359.2944"/>
<polygon fill="#000000" stroke="#000000" points="2018.5684,-362.2847 2025.8355,-354.575 2015.3467,-356.0701 2018.5684,-362.2847"/>
</g>
<!-- prompt_connect_agent -->
<g id="node19" class="node">
<title>prompt_connect_agent</title>
<polygon fill="#add8e6" stroke="#add8e6" points="1925.7565,-345.9622 1752.6245,-345.9622 1752.6245,-304.7584 1925.7565,-304.7584 1925.7565,-345.9622"/>
<text text-anchor="middle" x="1839.1905" y="-329.5603" font-family="Times,serif" font-size="14.00" fill="#000000">Ich verbinde Sie mit</text>
<text text-anchor="middle" x="1839.1905" y="-312.7603" font-family="Times,serif" font-size="14.00" fill="#000000"> &#160;&#160;&#160;&#160;&#160;&#160;&#160;einem Kundenagenten.</text>
</g>
<!-- prompt_connect_agent&#45;&gt;end -->
<g id="edge11" class="edge">
<title>prompt_connect_agent&#45;&gt;end</title>
<path fill="none" stroke="#000000" d="M1851.3344,-304.7178C1872.3786,-268.9459 1915.811,-195.1179 1941.3088,-151.7758"/>
<polygon fill="#000000" stroke="#000000" points="1944.4092,-153.4083 1946.4631,-143.0144 1938.3758,-149.8588 1944.4092,-153.4083"/>
</g>
<!-- logic_zweitversuch_vnr&#45;&gt;prompt_vnr_fail -->
<g id="edge9" class="edge">
<title>logic_zweitversuch_vnr&#45;&gt;prompt_vnr_fail</title>
<path fill="none" stroke="#000000" d="M640.2783,-431.4979C615.8447,-397.3211 559.3086,-318.2403 523.0237,-267.4863"/>
<polygon fill="#000000" stroke="#000000" points="525.8241,-265.3852 517.1611,-259.2858 520.1297,-269.4563 525.8241,-265.3852"/>
<text text-anchor="middle" x="621.2431" y="-321.1603" font-family="Times,serif" font-size="14.00" fill="#000000">nein</text>
</g>
<!-- logic_zweitversuch_vnr&#45;&gt;prompt_connect_agent -->
<g id="edge10" class="edge">
<title>logic_zweitversuch_vnr&#45;&gt;prompt_connect_agent</title>
<path fill="none" stroke="#000000" d="M698.3027,-436.4982C751.9066,-423.5672 843.2372,-403.4641 923.0853,-395.3603 968.2502,-390.7766 1696.6203,-400.1087 1740.1905,-387.3603 1764.1097,-380.3617 1787.878,-365.7951 1806.1284,-352.5391"/>
<polygon fill="#000000" stroke="#000000" points="1808.7168,-354.9732 1814.6209,-346.1758 1804.5194,-349.3712 1808.7168,-354.9732"/>
<text text-anchor="middle" x="928.2431" y="-399.5603" font-family="Times,serif" font-size="14.00" fill="#000000">ja</text>
</g>
<!-- prompt_nicht_verstanden_anliegen -->
<g id="node21" class="node">
<title>prompt_nicht_verstanden_anliegen</title>
<polygon fill="#add8e6" stroke="#add8e6" points="1441.4642,-250.9617 1230.9168,-250.9617 1230.9168,-192.159 1441.4642,-192.159 1441.4642,-250.9617"/>
<text text-anchor="middle" x="1336.1905" y="-234.1603" font-family="Times,serif" font-size="14.00" fill="#000000">Ich konnte Sie leider</text>
<text text-anchor="middle" x="1336.1905" y="-217.3603" font-family="Times,serif" font-size="14.00" fill="#000000"> &#160;&#160;&#160;&#160;&#160;&#160;&#160;nicht verstehen. Um welchen </text>
<text text-anchor="middle" x="1336.1905" y="-200.5603" font-family="Times,serif" font-size="14.00" fill="#000000"> &#160;&#160;&#160;&#160;&#160;&#160;&#160;Themenkomplex geht es?</text>
</g>
<!-- prompt_nicht_verstanden_anliegen&#45;&gt;utterance_anliegen -->
<g id="edge21" class="edge">
<title>prompt_nicht_verstanden_anliegen&#45;&gt;utterance_anliegen</title>
<path fill="none" stroke="#000000" d="M1336.1905,-192.254C1336.1905,-156.6797 1336.1905,-97.1149 1336.1905,-62.0955"/>
<polygon fill="#000000" stroke="#000000" points="1339.6906,-62.0692 1336.1905,-52.0692 1332.6906,-62.0692 1339.6906,-62.0692"/>
</g>
<!-- logic_zweitversuch_anliegen&#45;&gt;prompt_connect_agent -->
<g id="edge23" class="edge">
<title>logic_zweitversuch_anliegen&#45;&gt;prompt_connect_agent</title>
<path fill="none" stroke="#000000" d="M1417.4752,-439.8934C1517.9058,-428.9927 1682.5677,-408.6847 1740.1905,-387.3603 1762.9096,-378.9527 1785.9817,-364.8922 1804.1308,-352.2847"/>
<polygon fill="#000000" stroke="#000000" points="1806.5027,-354.8926 1812.6218,-346.2435 1802.4446,-349.189 1806.5027,-354.8926"/>
<text text-anchor="middle" x="1712.2431" y="-399.5603" font-family="Times,serif" font-size="14.00" fill="#000000">ja</text>
</g>
<!-- logic_zweitversuch_anliegen&#45;&gt;prompt_nicht_verstanden_anliegen -->
<g id="edge20" class="edge">
<title>logic_zweitversuch_anliegen&#45;&gt;prompt_nicht_verstanden_anliegen</title>
<path fill="none" stroke="#000000" d="M1336.1905,-429.9998C1336.1905,-393.5259 1336.1905,-310.6284 1336.1905,-261.0689"/>
<polygon fill="#000000" stroke="#000000" points="1339.6906,-261.0281 1336.1905,-251.0282 1332.6906,-261.0282 1339.6906,-261.0281"/>
<text text-anchor="middle" x="1348.2431" y="-321.1603" font-family="Times,serif" font-size="14.00" fill="#000000">nein</text>
</g>
</g>
</svg>
