<?xml version="1.0" encoding="UTF-8" standalone="no"?>
<!DOCTYPE svg PUBLIC "-//W3C//DTD SVG 1.1//EN"
 "http://www.w3.org/Graphics/SVG/1.1/DTD/svg11.dtd">
<!-- Generated by graphviz version 2.40.1 (20161225.0304)
 -->
<!-- Title: tel_flow Pages: 1 -->
<svg width="2330pt" height="1305pt"
 viewBox="0.00 0.00 2330.19 1304.62" xmlns="http://www.w3.org/2000/svg" xmlns:xlink="http://www.w3.org/1999/xlink">
<g id="graph0" class="graph" transform="scale(1 1) rotate(0) translate(4 1300.6213)">
<title>tel_flow</title>
<polygon fill="#ffffff" stroke="transparent" points="-4,4 -4,-1300.6213 2326.1905,-1300.6213 2326.1905,4 -4,4"/>
<g id="clust1" class="cluster">
<title>cluster_welcome</title>
<polygon fill="none" stroke="#000000" points="426.1905,-1040.7603 426.1905,-1288.6213 674.1905,-1288.6213 674.1905,-1040.7603 426.1905,-1040.7603"/>
<text text-anchor="middle" x="550.1905" y="-1272.0213" font-family="Times,serif" font-size="14.00" fill="#000000">Willkommen</text>
</g>
<g id="clust2" class="cluster">
<title>cluster_vnr</title>
<polygon fill="none" stroke="#000000" points="411.1905,-175.9603 411.1905,-1021.7603 1015.1905,-1021.7603 1015.1905,-175.9603 411.1905,-175.9603"/>
<text text-anchor="middle" x="713.1905" y="-1005.1603" font-family="Times,serif" font-size="14.00" fill="#000000">Versichertennummer verstehen</text>
</g>
<g id="clust3" class="cluster">
<title>cluster_anliegen</title>
<polygon fill="none" stroke="#000000" points="1515.1905,-8 1515.1905,-720.9603 2314.1905,-720.9603 2314.1905,-8 1515.1905,-8"/>
<text text-anchor="middle" x="1914.6905" y="-704.3603" font-family="Times,serif" font-size="14.00" fill="#000000">Anliegen verstehen</text>
</g>
<g id="clust4" class="cluster">
<title>cluster_to_agent</title>
<polygon fill="none" stroke="#000000" points="1023.1905,-81 1023.1905,-387.3603 1507.1905,-387.3603 1507.1905,-81 1023.1905,-81"/>
<text text-anchor="middle" x="1265.1905" y="-370.7603" font-family="Times,serif" font-size="14.00" fill="#000000">Absprung zum Agenten</text>
</g>
<!-- note1 -->
<g id="node1" class="node">
<title>note1</title>
<polygon fill="#d3d3d3" stroke="#000000" points="412.5717,-1257.5617 -.1907,-1257.5617 -.1907,-1198.759 418.5717,-1198.759 418.5717,-1251.5617 412.5717,-1257.5617"/>
<polyline fill="none" stroke="#000000" points="412.5717,-1257.5617 412.5717,-1251.5617 "/>
<polyline fill="none" stroke="#000000" points="418.5717,-1251.5617 412.5717,-1251.5617 "/>
<text text-anchor="middle" x="209.1905" y="-1240.7603" font-family="Times,serif" font-size="14.00" fill="#000000">Dieser Flow wurde als Text/Code definiert und auto&#45;gerendert.</text>
<text text-anchor="middle" x="209.1905" y="-1223.9603" font-family="Times,serif" font-size="14.00" fill="#000000"> &#160;&#160;&#160;&#160;&#160;&#160;&#160;Das Knoten&#45;Layout erfolgt automatisch über ein Layout&#45;Engine.</text>
<text text-anchor="middle" x="209.1905" y="-1207.1603" font-family="Times,serif" font-size="14.00" fill="#000000"> &#160;&#160;&#160;&#160;&#160;&#160;&#160;Siehe https://graphviz.org für mehr Informationen.</text>
</g>
<!-- start -->
<g id="node2" class="node">
<title>start</title>
<ellipse fill="#000000" stroke="#000000" cx="550.1905" cy="-1228.1603" rx="27.8228" ry="27.8228"/>
<text text-anchor="middle" x="550.1905" y="-1223.9603" font-family="Times,serif" font-size="14.00" fill="#000000">start</text>
</g>
<!-- prompt_welcome -->
<g id="node4" class="node">
<title>prompt_welcome</title>
<polygon fill="#add8e6" stroke="#add8e6" points="665.9502,-1124.0606 434.4308,-1124.0606 434.4308,-1048.6601 665.9502,-1048.6601 665.9502,-1124.0606"/>
<text text-anchor="middle" x="550.1905" y="-1107.3603" font-family="Times,serif" font-size="14.00" fill="#000000">Willkommen</text>
<text text-anchor="middle" x="550.1905" y="-1090.5603" font-family="Times,serif" font-size="14.00" fill="#000000"> &#160;&#160;&#160;&#160;&#160;&#160;&#160;beim Telefonkontakt der ABC&#45;</text>
<text text-anchor="middle" x="550.1905" y="-1073.7603" font-family="Times,serif" font-size="14.00" fill="#000000"> &#160;&#160;&#160;&#160;&#160;&#160;&#160;Krankenkasse! Ein Kundenagent </text>
<text text-anchor="middle" x="550.1905" y="-1056.9603" font-family="Times,serif" font-size="14.00" fill="#000000"> &#160;&#160;&#160;&#160;&#160;&#160;&#160;ist gleich für Sie da.</text>
</g>
<!-- start&#45;&gt;prompt_welcome -->
<g id="edge1" class="edge">
<title>start&#45;&gt;prompt_welcome</title>
<path fill="none" stroke="#000000" d="M550.1905,-1200.4833C550.1905,-1181.6969 550.1905,-1156.3635 550.1905,-1134.3376"/>
<polygon fill="#000000" stroke="#000000" points="553.6906,-1134.1607 550.1905,-1124.1608 546.6906,-1134.1608 553.6906,-1134.1607"/>
</g>
<!-- end -->
<g id="node3" class="node">
<title>end</title>
<ellipse fill="#000000" stroke="#000000" cx="1239.1905" cy="-117.9802" rx="24.9631" ry="24.9631"/>
<ellipse fill="none" stroke="#000000" cx="1239.1905" cy="-117.9802" rx="28.9604" ry="28.9604"/>
<text text-anchor="middle" x="1239.1905" y="-113.7802" font-family="Times,serif" font-size="14.00" fill="#000000">end</text>
</g>
<!-- prompt_vnr -->
<g id="node5" class="node">
<title>prompt_vnr</title>
<polygon fill="#add8e6" stroke="#add8e6" points="668.2425,-988.9603 432.1385,-988.9603 432.1385,-896.9603 668.2425,-896.9603 668.2425,-988.9603"/>
<text text-anchor="middle" x="550.1905" y="-972.3603" font-family="Times,serif" font-size="14.00" fill="#000000">Bevor ich Sie verbinde,</text>
<text text-anchor="middle" x="550.1905" y="-955.5603" font-family="Times,serif" font-size="14.00" fill="#000000"> &#160;&#160;&#160;&#160;&#160;&#160;&#160;sagen Sie mir bitte Ihre</text>
<text text-anchor="middle" x="550.1905" y="-938.7603" font-family="Times,serif" font-size="14.00" fill="#000000"> &#160;&#160;&#160;&#160;&#160;&#160;&#160;Versichertennummer. Sie beginnt </text>
<text text-anchor="middle" x="550.1905" y="-921.9603" font-family="Times,serif" font-size="14.00" fill="#000000"> &#160;&#160;&#160;&#160;&#160;&#160;&#160;mit einem Buchstaben, gefolgt</text>
<text text-anchor="middle" x="550.1905" y="-905.1603" font-family="Times,serif" font-size="14.00" fill="#000000"> &#160;&#160;&#160;&#160;&#160;&#160;&#160;von 8 Ziffern</text>
</g>
<!-- prompt_welcome&#45;&gt;prompt_vnr -->
<g id="edge2" class="edge">
<title>prompt_welcome&#45;&gt;prompt_vnr</title>
<path fill="none" stroke="#000000" d="M550.1905,-1048.6837C550.1905,-1033.5653 550.1905,-1015.8197 550.1905,-999.2309"/>
<polygon fill="#000000" stroke="#000000" points="553.6906,-999.0852 550.1905,-989.0853 546.6906,-999.0853 553.6906,-999.0852"/>
</g>
<!-- utterance_vnr -->
<g id="node6" class="node">
<title>utterance_vnr</title>
<polygon fill="#9acd32" stroke="#9acd32" points="602.3084,-821.9603 498.0726,-821.9603 498.0726,-785.9603 602.3084,-785.9603 602.3084,-821.9603"/>
<text text-anchor="middle" x="550.1905" y="-799.7603" font-family="Times,serif" font-size="14.00" fill="#000000">VNR&#45;Utterance</text>
</g>
<!-- prompt_vnr&#45;&gt;utterance_vnr -->
<g id="edge3" class="edge">
<title>prompt_vnr&#45;&gt;utterance_vnr</title>
<path fill="none" stroke="#000000" d="M550.1905,-896.6754C550.1905,-875.4175 550.1905,-850.886 550.1905,-832.3983"/>
<polygon fill="#000000" stroke="#000000" points="553.6906,-832.2818 550.1905,-822.2818 546.6906,-832.2818 553.6906,-832.2818"/>
</g>
<!-- nlu_vnr -->
<g id="node7" class="node">
<title>nlu_vnr</title>
<polygon fill="#d3d3d3" stroke="#000000" points="442.357,-664.598 566.1905,-652.1603 690.024,-664.598 689.9085,-684.7226 442.4725,-684.7226 442.357,-664.598"/>
<text text-anchor="middle" x="566.1905" y="-665.9603" font-family="Times,serif" font-size="14.00" fill="#000000">NLU: Versichertennr.?</text>
</g>
<!-- utterance_vnr&#45;&gt;nlu_vnr -->
<g id="edge4" class="edge">
<title>utterance_vnr&#45;&gt;nlu_vnr</title>
<path fill="none" stroke="#000000" d="M552.3483,-785.9155C555.1522,-762.4681 560.0613,-721.4157 563.2168,-695.0281"/>
<polygon fill="#000000" stroke="#000000" points="566.6989,-695.3857 564.4111,-685.0408 559.7484,-694.5545 566.6989,-695.3857"/>
</g>
<!-- intent_vnr_no_intent -->
<g id="node13" class="node">
<title>intent_vnr_no_intent</title>
<polygon fill="#d3d3d3" stroke="#000000" points="661.3734,-564.7226 550.1905,-577.1603 439.0076,-564.7226 439.1114,-544.598 661.2696,-544.598 661.3734,-564.7226"/>
<text text-anchor="middle" x="550.1905" y="-554.9603" font-family="Times,serif" font-size="14.00" fill="#000000">VNR_NO_INTENT</text>
</g>
<!-- nlu_vnr&#45;&gt;intent_vnr_no_intent -->
<g id="edge7" class="edge">
<title>nlu_vnr&#45;&gt;intent_vnr_no_intent</title>
<path fill="none" stroke="#000000" d="M563.6198,-652.3263C561.0773,-634.6872 557.1493,-607.4371 554.1971,-586.9564"/>
<polygon fill="#000000" stroke="#000000" points="557.6458,-586.3485 552.7548,-576.9502 550.7174,-587.3472 557.6458,-586.3485"/>
</g>
<!-- intent_vnr_agent -->
<g id="node14" class="node">
<title>intent_vnr_agent</title>
<polygon fill="#d3d3d3" stroke="#000000" points="849.6716,-564.7226 764.1905,-577.1603 678.7094,-564.7226 678.7892,-544.598 849.5918,-544.598 849.6716,-564.7226"/>
<text text-anchor="middle" x="764.1905" y="-554.9603" font-family="Times,serif" font-size="14.00" fill="#000000">VNR_AGENT</text>
</g>
<!-- nlu_vnr&#45;&gt;intent_vnr_agent -->
<g id="edge5" class="edge">
<title>nlu_vnr&#45;&gt;intent_vnr_agent</title>
<path fill="none" stroke="#000000" d="M593.7216,-654.7263C629.2343,-634.8176 691.0187,-600.1809 729.646,-578.5262"/>
<polygon fill="#000000" stroke="#000000" points="731.4528,-581.5258 738.4641,-573.5827 728.0297,-575.4198 731.4528,-581.5258"/>
</g>
<!-- intent_vnr_vnr -->
<g id="node15" class="node">
<title>intent_vnr_vnr</title>
<polygon fill="#d3d3d3" stroke="#000000" points="1007.1896,-564.7226 937.1905,-577.1603 867.1914,-564.7226 867.2568,-544.598 1007.1242,-544.598 1007.1896,-564.7226"/>
<text text-anchor="middle" x="937.1905" y="-554.9603" font-family="Times,serif" font-size="14.00" fill="#000000">VNR_VNR</text>
</g>
<!-- nlu_vnr&#45;&gt;intent_vnr_vnr -->
<g id="edge6" class="edge">
<title>nlu_vnr&#45;&gt;intent_vnr_vnr</title>
<path fill="none" stroke="#000000" d="M611.3115,-656.6605C681.8578,-635.5537 817.6371,-594.9297 889.6457,-573.3853"/>
<polygon fill="#000000" stroke="#000000" points="890.7926,-576.6956 899.3697,-570.476 888.7861,-569.9893 890.7926,-576.6956"/>
</g>
<!-- nlu_anliegen -->
<g id="node8" class="node">
<title>nlu_anliegen</title>
<polygon fill="#d3d3d3" stroke="#000000" points="1780.6468,-664.598 1874.1905,-652.1603 1967.7342,-664.598 1967.6469,-684.7226 1780.7341,-684.7226 1780.6468,-664.598"/>
<text text-anchor="middle" x="1874.1905" y="-665.9603" font-family="Times,serif" font-size="14.00" fill="#000000">NLU: Anliegen?</text>
</g>
<!-- intent_anliegen_no_intent -->
<g id="node16" class="node">
<title>intent_anliegen_no_intent</title>
<polygon fill="#d3d3d3" stroke="#000000" points="1815.6208,-564.7226 1669.1905,-577.1603 1522.7602,-564.7226 1522.8969,-544.598 1815.4841,-544.598 1815.6208,-564.7226"/>
<text text-anchor="middle" x="1669.1905" y="-554.9603" font-family="Times,serif" font-size="14.00" fill="#000000">ANLIEGEN_NO_INTENT</text>
</g>
<!-- nlu_anliegen&#45;&gt;intent_anliegen_no_intent -->
<g id="edge18" class="edge">
<title>nlu_anliegen&#45;&gt;intent_anliegen_no_intent</title>
<path fill="none" stroke="#000000" d="M1847.3903,-655.649C1811.4701,-636.1995 1747.5261,-601.5762 1706.7985,-579.5237"/>
<polygon fill="#000000" stroke="#000000" points="1708.4385,-576.4316 1697.9783,-574.7479 1705.1055,-582.5872 1708.4385,-576.4316"/>
</g>
<!-- intent_anliegen_agent -->
<g id="node17" class="node">
<title>intent_anliegen_agent</title>
<polygon fill="#d3d3d3" stroke="#000000" points="2093.4182,-564.7226 1973.1905,-577.1603 1852.9628,-564.7226 1853.075,-544.598 2093.306,-544.598 2093.4182,-564.7226"/>
<text text-anchor="middle" x="1973.1905" y="-554.9603" font-family="Times,serif" font-size="14.00" fill="#000000">ANLIEGEN_AGENT</text>
</g>
<!-- nlu_anliegen&#45;&gt;intent_anliegen_agent -->
<g id="edge17" class="edge">
<title>nlu_anliegen&#45;&gt;intent_anliegen_agent</title>
<path fill="none" stroke="#000000" d="M1888.7983,-653.7819C1905.3001,-635.2798 1932.3283,-604.9755 1951.3421,-583.6571"/>
<polygon fill="#000000" stroke="#000000" points="1954.1541,-585.7625 1958.1982,-575.9699 1948.93,-581.1032 1954.1541,-585.7625"/>
</g>
<!-- intent_anliegen_xx -->
<g id="node18" class="node">
<title>intent_anliegen_xx</title>
<polygon fill="#d3d3d3" stroke="#000000" points="2306.5159,-564.7226 2209.1905,-577.1603 2111.8651,-564.7226 2111.956,-544.598 2306.425,-544.598 2306.5159,-564.7226"/>
<text text-anchor="middle" x="2209.1905" y="-554.9603" font-family="Times,serif" font-size="14.00" fill="#000000">ANLIEGEN_XX</text>
</g>
<!-- nlu_anliegen&#45;&gt;intent_anliegen_xx -->
<g id="edge16" class="edge">
<title>nlu_anliegen&#45;&gt;intent_anliegen_xx</title>
<path fill="none" stroke="#000000" d="M1913.2749,-657.21C1974.5098,-636.9202 2092.9701,-597.6692 2159.9446,-575.4776"/>
<polygon fill="#000000" stroke="#000000" points="2161.4456,-578.6675 2169.8372,-572.1998 2159.2439,-572.0228 2161.4456,-578.6675"/>
</g>
<!-- prompt_vnr_fail -->
<g id="node9" class="node">
<title>prompt_vnr_fail</title>
<polygon fill="#add8e6" stroke="#add8e6" points="619.1387,-259.2606 435.2423,-259.2606 435.2423,-183.8601 619.1387,-183.8601 619.1387,-259.2606"/>
<text text-anchor="middle" x="527.1905" y="-242.5603" font-family="Times,serif" font-size="14.00" fill="#000000">Das hat leider nicht geklappt. </text>
<text text-anchor="middle" x="527.1905" y="-225.7603" font-family="Times,serif" font-size="14.00" fill="#000000"> &#160;&#160;&#160;&#160;&#160;&#160;&#160;Probieren wirs nochmal.</text>
<text text-anchor="middle" x="527.1905" y="-208.9603" font-family="Times,serif" font-size="14.00" fill="#000000"> &#160;&#160;&#160;&#160;&#160;&#160;&#160;Sagen Sie mir bitte Ihre</text>
<text text-anchor="middle" x="527.1905" y="-192.1603" font-family="Times,serif" font-size="14.00" fill="#000000"> &#160;&#160;&#160;&#160;&#160;&#160;&#160;Versichertennummer.</text>
</g>
<!-- prompt_vnr_fail&#45;&gt;utterance_vnr -->
<g id="edge12" class="edge">
<title>prompt_vnr_fail&#45;&gt;utterance_vnr</title>
<path fill="none" stroke="#000000" d="M459.1226,-259.1763C438.0199,-276.053 420.1905,-298.3146 420.1905,-325.3603 420.1905,-748.4603 420.1905,-748.4603 420.1905,-748.4603 420.1905,-764.6535 454.7392,-778.9006 488.2156,-788.9045"/>
<polygon fill="#000000" stroke="#000000" points="487.4855,-792.3365 498.0636,-791.7408 489.4229,-785.6099 487.4855,-792.3365"/>
</g>
<!-- prompt_vnr_success -->
<g id="node10" class="node">
<title>prompt_vnr_success</title>
<polygon fill="#add8e6" stroke="#add8e6" points="1779.568,-242.1622 1522.813,-242.1622 1522.813,-200.9584 1779.568,-200.9584 1779.568,-242.1622"/>
<text text-anchor="middle" x="1651.1905" y="-225.7603" font-family="Times,serif" font-size="14.00" fill="#000000">Danke! Mit welchem Thema </text>
<text text-anchor="middle" x="1651.1905" y="-208.9603" font-family="Times,serif" font-size="14.00" fill="#000000"> &#160;&#160;&#160;&#160;&#160;&#160;&#160;können wir Sie heute unterstützen?</text>
</g>
<!-- utterance_anliegen -->
<g id="node11" class="node">
<title>utterance_anliegen</title>
<polygon fill="#9acd32" stroke="#9acd32" points="1966.5755,-52 1839.8055,-52 1839.8055,-16 1966.5755,-16 1966.5755,-52"/>
<text text-anchor="middle" x="1903.1905" y="-29.8" font-family="Times,serif" font-size="14.00" fill="#000000">Anliegen&#45;Utterance</text>
</g>
<!-- prompt_vnr_success&#45;&gt;utterance_anliegen -->
<g id="edge13" class="edge">
<title>prompt_vnr_success&#45;&gt;utterance_anliegen</title>
<path fill="none" stroke="#000000" d="M1679.1218,-200.7715C1726.1237,-165.7885 1820.7729,-95.3423 1870.6826,-58.1952"/>
<polygon fill="#000000" stroke="#000000" points="1872.9453,-60.8742 1878.8775,-52.0958 1868.7658,-55.2588 1872.9453,-60.8742"/>
</g>
<!-- utterance_anliegen&#45;&gt;nlu_anliegen -->
<g id="edge14" class="edge">
<title>utterance_anliegen&#45;&gt;nlu_anliegen</title>
<path fill="none" stroke="#000000" d="M1925.1683,-52.3952C1952.8318,-77.141 1998.9372,-124.0779 2017.1905,-175.9603 2029.4627,-210.8423 2027.2365,-223.5733 2017.1905,-259.1603 1977.2436,-400.6686 1884.1374,-399.6521 1844.1905,-541.1603 1834.22,-576.4798 1848.3438,-617.9026 1860.3933,-644.0888"/>
<polygon fill="#000000" stroke="#000000" points="1857.3567,-645.8496 1864.8553,-653.3344 1863.661,-642.8071 1857.3567,-645.8496"/>
</g>
<!-- prompt_anliegen_success -->
<g id="node12" class="node">
<title>prompt_anliegen_success</title>
<polygon fill="#add8e6" stroke="#add8e6" points="1499.2923,-354.7617 1223.0887,-354.7617 1223.0887,-295.959 1499.2923,-295.959 1499.2923,-354.7617"/>
<text text-anchor="middle" x="1361.1905" y="-337.9603" font-family="Times,serif" font-size="14.00" fill="#000000">Zu Thema XX</text>
<text text-anchor="middle" x="1361.1905" y="-321.1603" font-family="Times,serif" font-size="14.00" fill="#000000"> &#160;&#160;&#160;&#160;&#160;&#160;&#160;unterstützt Sie gleich ein Kundenagent.</text>
<text text-anchor="middle" x="1361.1905" y="-304.3603" font-family="Times,serif" font-size="14.00" fill="#000000"> &#160;&#160;&#160;&#160;&#160;&#160;&#160;Ich verbinde Sie.</text>
</g>
<!-- prompt_anliegen_success&#45;&gt;end -->
<g id="edge26" class="edge">
<title>prompt_anliegen_success&#45;&gt;end</title>
<path fill="none" stroke="#000000" d="M1343.9696,-296.0877C1321.6202,-258.0972 1282.6992,-191.9378 1259.1039,-151.8298"/>
<polygon fill="#000000" stroke="#000000" points="1262.1145,-150.0445 1254.0272,-143.2001 1256.0811,-153.594 1262.1145,-150.0445"/>
</g>
<!-- logic_zweitversuch_vnr -->
<g id="node20" class="node">
<title>logic_zweitversuch_vnr</title>
<polygon fill="#d3d3d3" stroke="#000000" points="567.1905,-466.1603 438.7541,-448.1603 567.1905,-430.1603 695.6269,-448.1603 567.1905,-466.1603"/>
<text text-anchor="middle" x="567.1905" y="-443.9603" font-family="Times,serif" font-size="14.00" fill="#000000">Zweitversuch V&#45;Nr?</text>
</g>
<!-- intent_vnr_no_intent&#45;&gt;logic_zweitversuch_vnr -->
<g id="edge8" class="edge">
<title>intent_vnr_no_intent&#45;&gt;logic_zweitversuch_vnr</title>
<path fill="none" stroke="#000000" d="M552.4832,-544.1904C555.1625,-526.6964 559.6509,-497.3895 562.9661,-475.7433"/>
<polygon fill="#000000" stroke="#000000" points="566.4319,-476.2323 564.4862,-465.8176 559.5126,-475.1725 566.4319,-476.2323"/>
</g>
<!-- prompt_connect_agent -->
<g id="node19" class="node">
<title>prompt_connect_agent</title>
<polygon fill="#add8e6" stroke="#add8e6" points="1204.7565,-345.9622 1031.6245,-345.9622 1031.6245,-304.7584 1204.7565,-304.7584 1204.7565,-345.9622"/>
<text text-anchor="middle" x="1118.1905" y="-329.5603" font-family="Times,serif" font-size="14.00" fill="#000000">Ich verbinde Sie mit</text>
<text text-anchor="middle" x="1118.1905" y="-312.7603" font-family="Times,serif" font-size="14.00" fill="#000000"> &#160;&#160;&#160;&#160;&#160;&#160;&#160;einem Kundenagenten.</text>
</g>
<!-- intent_vnr_agent&#45;&gt;prompt_connect_agent -->
<g id="edge23" class="edge">
<title>intent_vnr_agent&#45;&gt;prompt_connect_agent</title>
<path fill="none" stroke="#000000" d="M786.3348,-544.5351C844.7342,-505.9651 1003.5591,-401.0689 1078.2975,-351.7077"/>
<polygon fill="#000000" stroke="#000000" points="1080.5673,-354.4032 1086.9827,-345.9716 1076.7095,-348.5621 1080.5673,-354.4032"/>
</g>
<!-- intent_vnr_vnr&#45;&gt;prompt_vnr_success -->
<g id="edge15" class="edge">
<title>intent_vnr_vnr&#45;&gt;prompt_vnr_success</title>
<path fill="none" stroke="#000000" d="M1007.1881,-556.1553C1163.473,-548.9816 1527.1905,-529.5096 1527.1905,-503.6603 1527.1905,-503.6603 1527.1905,-503.6603 1527.1905,-325.3603 1527.1905,-289.8424 1557.4738,-264.0794 1588.1092,-247.104"/>
<polygon fill="#000000" stroke="#000000" points="1589.9479,-250.0913 1597.163,-242.3329 1586.6845,-243.8985 1589.9479,-250.0913"/>
</g>
<!-- logic_zweitversuch_anliegen -->
<g id="node22" class="node">
<title>logic_zweitversuch_anliegen</title>
<polygon fill="#d3d3d3" stroke="#000000" points="1704.1905,-466.1603 1554.7567,-448.1603 1704.1905,-430.1603 1853.6243,-448.1603 1704.1905,-466.1603"/>
<text text-anchor="middle" x="1704.1905" y="-443.9603" font-family="Times,serif" font-size="14.00" fill="#000000">Zweitversuch Anliegen?</text>
</g>
<!-- intent_anliegen_no_intent&#45;&gt;logic_zweitversuch_anliegen -->
<g id="edge19" class="edge">
<title>intent_anliegen_no_intent&#45;&gt;logic_zweitversuch_anliegen</title>
<path fill="none" stroke="#000000" d="M1673.9108,-544.1904C1679.452,-526.6169 1688.7519,-497.1228 1695.5861,-475.4486"/>
<polygon fill="#000000" stroke="#000000" points="1698.9536,-476.4073 1698.6229,-465.8176 1692.2776,-474.3022 1698.9536,-476.4073"/>
</g>
<!-- intent_anliegen_agent&#45;&gt;prompt_connect_agent -->
<g id="edge22" class="edge">
<title>intent_anliegen_agent&#45;&gt;prompt_connect_agent</title>
<path fill="none" stroke="#000000" d="M1965.599,-544.2003C1950.3844,-516.0295 1913.196,-455.6563 1862.1905,-430.1603 1758.5977,-378.3778 1457.7628,-402.8392 1342.1905,-395.3603 1313.75,-393.5199 1241.2622,-396.2694 1214.1905,-387.3603 1191.1924,-379.7918 1168.3061,-365.3508 1150.6508,-352.309"/>
<polygon fill="#000000" stroke="#000000" points="1152.505,-349.322 1142.4263,-346.0553 1148.2681,-354.8941 1152.505,-349.322"/>
</g>
<!-- intent_anliegen_xx&#45;&gt;prompt_anliegen_success -->
<g id="edge24" class="edge">
<title>intent_anliegen_xx&#45;&gt;prompt_anliegen_success</title>
<path fill="none" stroke="#000000" d="M2194.6208,-544.4962C2159.5834,-510.385 2066.2908,-426.2689 1969.1905,-395.3603 1920.6917,-379.9224 1561.0245,-397.7066 1511.1905,-387.3603 1482.5635,-381.417 1452.5011,-370.1065 1426.8694,-358.7559"/>
<polygon fill="#000000" stroke="#000000" points="1428.1914,-355.5126 1417.6375,-354.5822 1425.3077,-361.891 1428.1914,-355.5126"/>
</g>
<!-- prompt_connect_agent&#45;&gt;end -->
<g id="edge11" class="edge">
<title>prompt_connect_agent&#45;&gt;end</title>
<path fill="none" stroke="#000000" d="M1130.2348,-304.7178C1151.1066,-268.9459 1194.183,-195.1179 1219.4718,-151.7758"/>
<polygon fill="#000000" stroke="#000000" points="1222.5672,-153.4156 1224.5838,-143.0144 1216.5211,-149.8878 1222.5672,-153.4156"/>
</g>
<!-- logic_zweitversuch_vnr&#45;&gt;prompt_vnr_fail -->
<g id="edge9" class="edge">
<title>logic_zweitversuch_vnr&#45;&gt;prompt_vnr_fail</title>
<path fill="none" stroke="#000000" d="M564.0518,-430.3794C557.9867,-396.021 544.4744,-319.4738 535.6039,-269.2223"/>
<polygon fill="#000000" stroke="#000000" points="539.0257,-268.4724 533.8406,-259.2331 532.1323,-269.6893 539.0257,-268.4724"/>
<text text-anchor="middle" x="568.2431" y="-321.1603" font-family="Times,serif" font-size="14.00" fill="#000000">nein</text>
</g>
<!-- logic_zweitversuch_vnr&#45;&gt;prompt_connect_agent -->
<g id="edge10" class="edge">
<title>logic_zweitversuch_vnr&#45;&gt;prompt_connect_agent</title>
<path fill="none" stroke="#000000" d="M633.4874,-439.3326C758.5226,-422.6715 1016.9331,-388.1757 1019.1905,-387.3603 1042.1387,-379.0717 1065.3833,-364.8798 1083.5771,-352.1641"/>
<polygon fill="#000000" stroke="#000000" points="1085.9887,-354.7419 1092.0794,-346.0728 1081.9119,-349.0515 1085.9887,-354.7419"/>
<text text-anchor="middle" x="957.2431" y="-399.5603" font-family="Times,serif" font-size="14.00" fill="#000000">ja</text>
</g>
<!-- prompt_nicht_verstanden_anliegen -->
<g id="node21" class="node">
<title>prompt_nicht_verstanden_anliegen</title>
<polygon fill="#add8e6" stroke="#add8e6" points="2008.4642,-250.9617 1797.9168,-250.9617 1797.9168,-192.159 2008.4642,-192.159 2008.4642,-250.9617"/>
<text text-anchor="middle" x="1903.1905" y="-234.1603" font-family="Times,serif" font-size="14.00" fill="#000000">Ich konnte Sie leider</text>
<text text-anchor="middle" x="1903.1905" y="-217.3603" font-family="Times,serif" font-size="14.00" fill="#000000"> &#160;&#160;&#160;&#160;&#160;&#160;&#160;nicht verstehen. Um welchen </text>
<text text-anchor="middle" x="1903.1905" y="-200.5603" font-family="Times,serif" font-size="14.00" fill="#000000"> &#160;&#160;&#160;&#160;&#160;&#160;&#160;Themenkomplex geht es?</text>
</g>
<!-- prompt_nicht_verstanden_anliegen&#45;&gt;utterance_anliegen -->
<g id="edge21" class="edge">
<title>prompt_nicht_verstanden_anliegen&#45;&gt;utterance_anliegen</title>
<path fill="none" stroke="#000000" d="M1903.1905,-192.254C1903.1905,-156.6797 1903.1905,-97.1149 1903.1905,-62.0955"/>
<polygon fill="#000000" stroke="#000000" points="1906.6906,-62.0692 1903.1905,-52.0692 1899.6906,-62.0692 1906.6906,-62.0692"/>
</g>
<!-- logic_zweitversuch_anliegen&#45;&gt;prompt_connect_agent -->
<g id="edge25" class="edge">
<title>logic_zweitversuch_anliegen&#45;&gt;prompt_connect_agent</title>
<path fill="none" stroke="#000000" d="M1609.761,-441.4838C1488.3609,-432.0329 1284.7903,-413.007 1214.1905,-387.3603 1191.7546,-379.2101 1169.2034,-365.0265 1151.6007,-352.2807"/>
<polygon fill="#000000" stroke="#000000" points="1153.4934,-349.3267 1143.3791,-346.172 1149.3185,-354.9455 1153.4934,-349.3267"/>
<text text-anchor="middle" x="1333.2431" y="-399.5603" font-family="Times,serif" font-size="14.00" fill="#000000">ja</text>
</g>
<!-- logic_zweitversuch_anliegen&#45;&gt;prompt_nicht_verstanden_anliegen -->
<g id="edge20" class="edge">
<title>logic_zweitversuch_anliegen&#45;&gt;prompt_nicht_verstanden_anliegen</title>
<path fill="none" stroke="#000000" d="M1718.5021,-431.8638C1750.14,-395.8379 1826.6964,-308.6637 1870.6701,-258.5911"/>
<polygon fill="#000000" stroke="#000000" points="1873.4672,-260.7102 1877.436,-250.8868 1868.2075,-256.0911 1873.4672,-260.7102"/>
<text text-anchor="middle" x="1848.2431" y="-321.1603" font-family="Times,serif" font-size="14.00" fill="#000000">nein</text>
</g>
</g>
</svg>
